<svg xmlns="http://www.w3.org/2000/svg" viewBox="0 0 1600 600" role="img" aria-label="Hallaqi">
  <defs>
    <linearGradient id="hallaqiWordmark" x1="0" y1="0" x2="1" y2="1">
      <stop offset="0" stop-color="#159A8C"/>
      <stop offset="0.6" stop-color="#0F766E"/>
      <stop offset="1" stop-color="#164E63"/>
    </linearGradient>
  </defs>
  <rect width="1600" height="600" rx="72" fill="#ffffff"/>
  <g transform="translate(45 -212) scale(.56)" fill="none" stroke="url(#hallaqiWordmark)" stroke-width="118" stroke-linecap="round" stroke-linejoin="round">
    <path d="M470 412 214 668c-45 45-45 118 0 163l168 168c45 45 118 45 163 0l67-67"/>
    <path d="m554 412 256 256c45 45 45 118 0 163L642 999c-45 45-118 45-163 0l-67-67"/>
    <path d="m412 734 100-100 100 100"/>
    <path d="m612 690-100 100-100-100"/>
  </g>
  <text x="620" y="365" fill="url(#hallaqiWordmark)" font-family="Inter, Arial, sans-serif" font-size="238" font-weight="750" letter-spacing="-8">Hallaqi</text>
  <text x="630" y="455" fill="#475569" font-family="Arial, sans-serif" font-size="48" font-weight="500" letter-spacing="4">TRUSTED PERSONAL CARE</text>
</svg>
